<!--?xml version="1.0" encoding="utf-8"?-->
<!-- Generator: Adobe Illustrator 19.1.1, SVG Export Plug-In . SVG Version: 6.00 Build 0)  -->
<svg version="1.1" id="_x31_0" xmlns="http://www.w3.org/2000/svg" xmlns:xlink="http://www.w3.org/1999/xlink" x="0px" y="0px" viewBox="0 0 512 512" style="width: 64px; height: 64px; opacity: 1;" xml:space="preserve">
<style type="text/css">
	.st0{fill:#374149;}
</style>
<g>
	<path class="st0" d="M494,66.322H344.676l-0.758-0.004V32.08c0-13.758-11.918-24.559-25.598-23.199L20.961,38.4
		C9.039,39.599,0,49.599,0,61.599V450.56c0,12,9.039,22.082,20.961,23.199l297.359,29.359c13.68,1.363,25.598-9.437,25.598-23.199
		v-34H494c9.918,0,18-8.078,18-18V84.322C512,74.322,503.918,66.322,494,66.322z M334.398,407.919v-32.238h32.562v-44.563h-32.523
		h-0.039v-19.836h32.562V266.72h-32.523h-0.039v-19.839h32.562V202.4h-32.523h-0.039v-19.918h32.562v-44.48h-32.523h-0.039V104.24
		H474v301.984v1.695H335.09H334.398z M297.442,416.361l-0.016,37.156L46.398,428.643V83.599L297.442,58.72V416.361z" style="fill: rgb(255, 255, 255);"></path>
	<polygon class="st0" points="139.199,335.842 203.562,229.56 241.778,166.639 241.66,166.65 241.762,166.482 190.879,171.283 
		174.617,201.744 165.547,218.549 141.918,175.919 113.125,178.666 100.942,179.759 100.977,179.826 100.801,179.842 
		144.238,254.08 112.238,308.041 98.094,331.755 98.172,331.763 98.078,331.919 	" style="fill: rgb(255, 255, 255);"></polygon>
	<polygon class="st0" points="194.457,264.143 194.418,264.209 194.324,264.06 171.922,300.541 193.918,340.963 245.762,345.919 
		210.156,289.255 	" style="fill: rgb(255, 255, 255);"></polygon>
	<rect x="382.406" y="137.975" class="st0" width="58.031" height="44.519" style="fill: rgb(255, 255, 255);"></rect>
	<rect x="382.406" y="202.365" class="st0" width="58.031" height="44.516" style="fill: rgb(255, 255, 255);"></rect>
	<polygon class="st0" points="382.566,266.751 382.566,266.751 382.406,266.751 382.406,311.271 440.438,311.271 440.438,266.751 
		382.918,266.751 	" style="fill: rgb(255, 255, 255);"></polygon>
	<rect x="382.406" y="331.147" class="st0" width="58.031" height="44.511" style="fill: rgb(255, 255, 255);"></rect>
</g>
</svg>
